<?xml version="1.0" encoding="UTF-8" standalone="no"?>
<svg
   xmlns:dc="http://purl.org/dc/elements/1.1/"
   xmlns:cc="http://creativecommons.org/ns#"
   xmlns:rdf="http://www.w3.org/1999/02/22-rdf-syntax-ns#"
   xmlns:svg="http://www.w3.org/2000/svg"
   xmlns="http://www.w3.org/2000/svg"
   xmlns:sodipodi="http://sodipodi.sourceforge.net/DTD/sodipodi-0.dtd"
   xmlns:inkscape="http://www.inkscape.org/namespaces/inkscape"
   version="1.1"
   id="Layer_1"
   x="0px"
   y="0px"
   viewBox="0 0 618.01038 1787.4833"
   enable-background="new 0 0 3000 3000"
   xml:space="preserve"
   sodipodi:docname="sering_b.svg"
   inkscape:version="1.0.1 (0767f8302a, 2020-10-17)"
   width="618.01038"
   height="1787.4833"><metadata
   id="metadata111"><rdf:RDF><cc:Work
       rdf:about=""><dc:format>image/svg+xml</dc:format><dc:type
         rdf:resource="http://purl.org/dc/dcmitype/StillImage" /><dc:title /></cc:Work></rdf:RDF></metadata><defs
   id="defs109">
	
	

		
	
			
			
			
			
		
				
				
				
				
				
				
				
				
				
				
				
				
				
				
				
			
					
						
					
						
					
						
					
						
					
						
					
						
					
						
					
						
					
						
					
						
					
						
					
						
					
						
					
						
					
						
					
						
					
						
					
						
					
						
					
						
					
						
					
						
					
						
					
						
					
						
					
						
					
						
					
						
					
						
					
						
				</defs><sodipodi:namedview
   pagecolor="#ffffff"
   bordercolor="#666666"
   borderopacity="1"
   objecttolerance="10"
   gridtolerance="10"
   guidetolerance="10"
   inkscape:pageopacity="0"
   inkscape:pageshadow="2"
   inkscape:window-width="1870"
   inkscape:window-height="1016"
   id="namedview107"
   showgrid="false"
   inkscape:zoom="0.19366312"
   inkscape:cx="-760.70413"
   inkscape:cy="302.99217"
   inkscape:window-x="50"
   inkscape:window-y="27"
   inkscape:window-maximized="1"
   inkscape:current-layer="g1205"
   fit-margin-top="0"
   fit-margin-left="0"
   fit-margin-right="0"
   fit-margin-bottom="0"
   inkscape:document-rotation="0" />
<g
   id="g1205"
   transform="translate(-1253.8537,-723.21104)"><path
     style="fill:#a3b7cc;stroke:none;stroke-width:1px;stroke-linecap:butt;stroke-linejoin:miter;stroke-opacity:1;fill-opacity:0.50196081"
     d="m 1444.6856,2208.8601 h 234.363 l -29.2828,33.8007 -40.6175,13.5247 -70.8073,2.7455 -58.2883,-12.0042 z"
     id="path916" /><path
     opacity="0.2"
     fill="#ffffff"
     d="m 1679.2825,962.98308 -2.2714,1214.87802 c -0.068,37.618 -32.9335,68.247 -73.0971,68.1742 l -86.6911,-0.157 c -0.5657,-10e-4 -0.99,0 -1.5557,0 -0.2828,-5e-4 -0.6362,-0.072 -0.9899,0 -0.4243,-8e-4 -0.7777,-0.072 -1.202,-0.073 l -0.1414,-3e-4 c -0.4948,-0.072 -1.0605,-0.073 -1.4848,-0.073 -0.4242,-7e-4 -0.9191,-0.072 -1.3433,-0.073 -0.3535,-0.071 -0.7777,-0.072 -1.1312,-0.1435 -1.8382,-0.1447 -3.6761,-0.4309 -5.4433,-0.7877 -0.3534,-0.071 -0.8482,-0.1429 -1.2017,-0.2143 -0.9896,-0.1432 -1.9085,-0.357 -2.8274,-0.5708 -0.3534,-0.071 -0.7068,-0.1427 -0.9894,-0.2846 -1.5549,-0.4271 -3.1097,-0.8542 -4.6646,-1.2813 -0.212,-0.071 -0.5654,-0.1424 -0.848,-0.2843 -0.424,-0.1422 -0.848,-0.2844 -1.272,-0.4266 -0.5654,-0.1425 -1.06,-0.3555 -1.6252,-0.6393 -1.1306,-0.4264 -2.2612,-0.8527 -3.321,-1.3496 -0.4946,-0.213 -1.0597,-0.4969 -1.5543,-0.7099 -0.4946,-0.213 -0.9892,-0.426 -1.4838,-0.6391 0,0 -0.071,-0.071 -0.212,-0.071 -0.4946,-0.213 -1.0598,-0.4969 -1.4835,-0.7805 -0.5652,-0.2838 -1.0598,-0.4969 -1.5541,-0.8513 -0.5652,-0.2839 -0.9889,-0.5675 -1.5541,-0.8514 -0.4943,-0.3544 -0.9889,-0.5674 -1.4833,-0.9219 -0.4237,-0.2836 -0.9183,-0.4966 -1.4126,-0.8511 -0.4944,-0.3544 -1.0595,-0.6383 -1.5539,-0.9927 -0.9181,-0.6381 -1.7656,-1.2053 -2.6836,-1.8434 -0.071,-0.071 -0.071,-0.071 -0.1412,-0.1417 -0.4943,-0.3544 -0.9181,-0.638 -1.3416,-1.0631 -0.4943,-0.3544 -0.8472,-0.7086 -1.3416,-1.0631 -0.4943,-0.3544 -0.8472,-0.7086 -1.3415,-1.063 -0.2118,-0.2126 -0.4944,-0.3545 -0.7061,-0.567 -0.2118,-0.2125 -0.4235,-0.425 -0.7061,-0.567 -0.3529,-0.3542 -0.7767,-0.6378 -1.2002,-1.0628 -0.4235,-0.425 -0.7764,-0.7792 -1.1999,-1.2043 -0.4235,-0.425 -0.9175,-0.9209 -1.341,-1.3459 -0.3529,-0.3542 -0.7059,-0.7084 -1.0588,-1.0626 -0.2117,-0.2125 -0.494,-0.4959 -0.7058,-0.7084 -0.2117,-0.2125 -0.4235,-0.425 -0.5644,-0.7081 -0.3529,-0.3542 -0.635,-0.779 -0.9879,-1.1332 -0.2821,-0.4247 -0.7056,-0.8498 -0.9876,-1.2745 -2.6103,-3.3282 -4.9375,-6.7972 -6.9107,-10.4778 -0.2115,-0.3539 -0.423,-0.7078 -0.5636,-1.1324 -0.6343,-1.2032 -1.2682,-2.5478 -1.8316,-3.8217 -0.1407,-0.4245 -0.3521,-0.7784 -0.4928,-1.2029 -0.7746,-1.7692 -1.337,-3.6087 -1.9699,-5.519 -0.1407,-0.4246 -0.2813,-0.8491 -0.3511,-1.3442 -0.211,-0.6368 -0.3511,-1.3441 -0.4913,-2.0515 0,0 0,0 0,0 -0.1401,-0.7073 -0.3511,-1.3441 -0.4912,-2.0515 0,0 -0.071,-0.071 2e-4,-0.1414 -0.1401,-0.7074 -0.2805,-1.2733 -0.3501,-1.9098 -0.071,-0.071 3e-4,-0.1415 -0.07,-0.2123 -0.07,-0.6365 -0.2097,-1.3439 -0.2793,-1.9804 -0.1398,-0.8488 -0.2797,-1.6976 -0.2782,-2.5461 -0.07,-0.6365 -0.1391,-1.273 -0.1381,-1.8387 3e-4,-0.1414 3e-4,-0.1414 5e-4,-0.2829 0,-0.5657 -0.069,-1.2022 -0.068,-1.7679 3e-4,-0.1414 5e-4,-0.2828 8e-4,-0.4242 0,-0.7071 0,-1.4142 -0.067,-2.1922 l 2.2007,-1214.80744 z"
     id="path8"
     sodipodi:insensitive="true" /><path
     fill="#14bfff"
     d="m 1589.8344,2261.6379 c -6.1669,47.3651 -24.0992,187.9057 -23.3725,216.1206 0.4654,16.335 -2.4488,24.6029 -5.5675,28.6985 -1.4175,1.8359 -2.7629,2.8941 -4.0367,3.4575 -1.6986,0.8455 -3.042,0.7723 -3.042,0.7723 0,0 -1.273,0.1391 -3.0391,-0.7833 -1.201,-0.6386 -2.6134,-1.6311 -4.0243,-3.4721 -3.1038,-4.1069 -5.9171,-12.4559 -5.4634,-28.7185 0.8289,-28.2121 -16.5941,-168.8167 -22.5893,-216.2038 -1.2552,-9.7604 -2.0223,-15.6308 -2.0223,-15.6308 l 34.4975,5.1537 2.9691,0.4296 37.4866,-5.4475 c 0.2828,5e-4 -0.5056,5.8681 -1.7961,15.6238 z"
     id="path16"
     style="fill:#a3b7cc;fill-opacity:1" /><path
     id="polygon20"
     style="fill:#a3b7cc;fill-opacity:1;stroke-width:0.41842"
     d="M 77.833984 0 C 73.167084 -0.003 69.063678 0.76065375 66.017578 2.0273438 C 62.971578 3.2940338 61.125587 5.0034219 61.117188 6.9511719 C 61.100187 10.787642 68.510725 13.893441 77.703125 13.900391 L 206.03906 14.001953 L 242.05078 54.138672 L 208.7832 239.37891 L 18.84375 239.03516 C 8.51995 239.01646 0.019 247.48681 0 257.81055 C -0.0187 268.13429 8.4516906 276.6356 18.775391 276.6543 L 599.16797 277.70508 C 609.49177 277.72378 617.99077 269.25343 618.00977 258.92969 C 618.02847 248.60595 609.63063 240.17544 599.23633 240.08594 L 406.18555 239.73633 L 386.68945 129.70898 L 385.38477 122.57227 L 373.09766 53.246094 L 406.80078 14.117188 L 546.44336 14.224609 C 551.11026 14.227609 555.21572 13.463956 558.26172 12.197266 C 561.30782 10.930586 563.15371 9.2211875 563.16211 7.2734375 C 563.17911 3.4369675 555.76847 0.33116875 546.57617 0.32421875 L 77.833984 0 z "
     transform="translate(1253.8537,723.21104)" /><path
     fill="#08bbff"
     d="m 1679.2825,962.98308 -2.2714,1214.87802 c -0.068,37.618 -32.9335,68.247 -73.0971,68.1742 l -86.6911,-0.157 c -0.5657,-10e-4 -0.99,0 -1.5557,0 -0.2828,-5e-4 -0.4242,-8e-4 -0.7071,0 -0.1414,-3e-4 -0.1414,-3e-4 -0.2828,-5e-4 -0.4243,-8e-4 -0.7777,-0.072 -1.202,-0.073 l -0.1414,-3e-4 c -0.4948,-0.072 -1.0605,-0.073 -1.4848,-0.073 -0.4242,-7e-4 -0.9191,-0.072 -1.3433,-0.073 -0.3535,-0.071 -0.7777,-0.072 -1.1312,-0.1435 -0.6362,-0.072 -1.1311,-0.1435 -1.7673,-0.2153 -0.4949,-0.072 -0.9897,-0.1432 -1.626,-0.2151 -0.4948,-0.072 -0.9897,-0.1432 -1.4137,-0.2854 -0.2828,-5e-4 -0.4948,-0.072 -0.7777,-0.072 0,0 -0.1414,-3e-4 -0.1414,-3e-4 -0.3534,-0.071 -0.7069,-0.1427 -1.0603,-0.214 -0.071,-0.071 -0.1414,-3e-4 -0.212,-0.071 -0.5654,-0.1425 -1.2017,-0.2143 -1.7671,-0.3568 -0.3534,-0.071 -0.7069,-0.1427 -0.9189,-0.2138 0,0 -0.071,-0.071 -0.1414,-2e-4 0,0 0,0 0,0 -0.3534,-0.071 -0.5654,-0.1425 -0.8482,-0.143 -0.6361,-0.2133 -1.2723,-0.2851 -1.9083,-0.4984 -0.3535,-0.071 -0.7069,-0.1427 -0.9895,-0.2847 -0.5654,-0.1424 -1.1308,-0.2848 -1.6254,-0.4979 0,0 0,0 -0.071,-0.071 -0.212,-0.071 -0.4946,-0.213 -0.7066,-0.2841 -0.424,-0.1422 -0.848,-0.2844 -1.272,-0.4266 -0.5654,-0.1425 -1.06,-0.3555 -1.6252,-0.6393 -1.1306,-0.4264 -2.2612,-0.8527 -3.321,-1.3496 -0.4946,-0.213 -1.0597,-0.4969 -1.5543,-0.7099 -0.4946,-0.213 -0.9892,-0.426 -1.4838,-0.6391 0,0 -0.071,-0.071 -0.212,-0.071 -0.4946,-0.213 -1.0598,-0.4969 -1.4835,-0.7805 -0.2826,-0.1419 -0.5652,-0.2838 -0.7772,-0.3549 -0.2826,-0.142 -0.4946,-0.2131 -0.7772,-0.355 -0.5651,-0.2839 -0.9889,-0.5675 -1.5541,-0.8513 -0.5651,-0.2839 -0.9889,-0.5675 -1.4832,-0.922 -0.4238,-0.2836 -0.9183,-0.4966 -1.4127,-0.8511 -0.071,-0.071 -0.1411,-0.1416 -0.2826,-0.1419 -0.4237,-0.2836 -0.8475,-0.5672 -1.2712,-0.8508 -0.4238,-0.2836 -0.8475,-0.5672 -1.3419,-0.9217 v 0 c -0.4237,-0.2836 -0.918,-0.6381 -1.3418,-0.9217 -0.071,-0.071 -0.071,-0.071 -0.1412,-0.1416 -0.4943,-0.3545 -0.918,-0.6381 -1.3415,-1.0631 -0.4944,-0.3545 -0.8473,-0.7087 -1.3416,-1.0631 -0.4943,-0.3545 -0.8473,-0.7087 -1.3416,-1.0631 -0.1412,-0.1417 -0.3529,-0.3542 -0.4941,-0.4959 0,0 0,0 0,0 0,0 -0.071,-0.071 -0.071,-0.071 -0.07,-0.071 -0.2117,-0.2125 -0.3529,-0.3542 -0.1411,-0.1417 -0.2117,-0.2125 -0.3529,-0.3542 -0.3529,-0.3542 -0.7766,-0.6378 -1.2001,-1.0629 -0.4235,-0.425 -0.7764,-0.7792 -1.1999,-1.2042 -0.4235,-0.425 -0.9176,-0.9209 -1.3411,-1.3459 -0.3529,-0.3542 -0.7058,-0.7084 -1.0587,-1.0626 -0.2118,-0.2125 -0.4941,-0.4959 -0.7059,-0.7084 -0.071,-0.071 -0.071,-0.071 -0.1411,-0.1417 -0.1412,-0.1417 -0.3529,-0.3542 -0.4941,-0.4959 -0.3529,-0.3542 -0.635,-0.7789 -0.9879,-1.1331 -0.2821,-0.4248 -0.7056,-0.8498 -0.9877,-1.2746 -0.4232,-0.5665 -0.7758,-1.0621 -1.2699,-1.5579 -0.2118,-0.2126 -0.3527,-0.4957 -0.5644,-0.7082 -0.2118,-0.2125 -0.4233,-0.5664 -0.5642,-0.8495 -0.2115,-0.354 -0.4232,-0.5665 -0.6347,-0.9204 -0.4232,-0.5665 -0.8462,-1.2743 -1.2695,-1.8408 -0.3524,-0.637 -0.7756,-1.2035 -1.128,-1.8405 -0.2115,-0.354 -0.423,-0.7079 -0.6345,-1.0618 -0.1411,-0.1417 -0.1409,-0.2831 -0.2821,-0.4248 -0.2114,-0.3539 -0.4935,-0.7787 -0.6342,-1.2032 -0.2115,-0.354 -0.423,-0.7079 -0.5636,-1.1324 -0.2818,-0.5662 -0.5636,-1.1324 -0.7749,-1.6278 -0.07,-0.2122 -0.2112,-0.4953 -0.3524,-0.637 -0.2112,-0.4954 -0.493,-1.0616 -0.7043,-1.5569 -0.1406,-0.4246 -0.3521,-0.7785 -0.4928,-1.203 -0.1406,-0.4245 -0.3518,-0.9199 -0.4925,-1.3444 -0.1406,-0.4245 -0.3519,-0.9199 -0.4925,-1.3444 -0.1407,-0.4245 -0.2813,-0.849 -0.4926,-1.3444 -0.1409,-0.2831 -0.211,-0.6368 -0.3519,-0.9199 -0.07,-0.2122 -0.07,-0.3537 -0.1404,-0.5659 -0.1406,-0.4245 -0.2813,-0.8491 -0.3511,-1.3442 -0.211,-0.6367 -0.3511,-1.3441 -0.4912,-2.0515 0,0 0,0 0,0 0,0 -0.071,-0.071 2e-4,-0.1414 0,0 0,0 -0.071,-0.071 -0.1406,-0.4245 -0.2104,-0.9196 -0.2802,-1.4147 2e-4,-0.1415 -0.07,-0.3537 -0.07,-0.4952 0,0 -0.071,-0.071 3e-4,-0.1414 -0.1401,-0.7073 -0.2805,-1.2733 -0.3501,-1.9098 -0.071,-0.071 3e-4,-0.1414 -0.07,-0.2123 0,0 0,0 -0.071,-0.071 5e-4,-0.2828 -0.07,-0.6365 -0.1399,-0.8488 -0.07,-0.3537 -0.07,-0.6365 -0.1396,-0.9902 -0.07,-0.3537 -0.1402,-0.7073 -0.1396,-0.9902 0,0 2e-4,-0.1414 2e-4,-0.1414 0,0 3e-4,-0.1414 3e-4,-0.1414 0,0 2e-4,-0.1415 2e-4,-0.1415 -0.07,-0.3536 -0.07,-0.6365 -0.069,-1.0607 5e-4,-0.2829 -0.07,-0.6366 -0.069,-0.9194 5e-4,-0.2828 -0.07,-0.6365 -0.069,-0.9194 3e-4,-0.1414 3e-4,-0.1414 6e-4,-0.2828 5e-4,-0.2829 -0.07,-0.4951 -0.069,-0.778 -0.07,-0.2122 7e-4,-0.4242 -0.07,-0.6365 3e-4,-0.1414 -0.07,-0.2122 5e-4,-0.2828 3e-4,-0.1414 5e-4,-0.2829 8e-4,-0.4243 5e-4,-0.2828 -0.07,-0.4951 0,-0.7071 0,0 2e-4,-0.1414 2e-4,-0.1414 8e-4,-0.4243 0,-0.8485 0,-1.2728 l 2.2006,-1214.80746 -19.9403,-0.0361 -2.2007,1214.80746 c -0.087,48.0832 41.4909,87.1201 92.8267,87.2131 l 86.6912,0.1571 c 51.3359,0.093 93.055,-38.7931 93.1421,-86.8763 l 2.2006,-1214.80744 z"
     id="path90"
     style="fill:#a3b7cc;fill-opacity:1" /><path
     opacity="0.65"
     fill="#ffffff"
     d="m 1469.0604,2172.4639 v 0 c -4.2426,-0.01 -7.7012,-3.4787 -7.6935,-7.7214 l 2.0228,-1116.6612 c 0.01,-4.2426 3.4788,-7.7011 7.7214,-7.6934 v 0 c 4.2427,0.01 7.7012,3.4787 7.6935,7.7214 l -2.0228,1116.6612 c -0.01,4.2426 -3.4788,7.7011 -7.7214,7.6934 z"
     id="path94" /><rect
     style="opacity:0.449809;fill:#a3b7cc;stroke-width:1.24613;stroke-linejoin:round;paint-order:stroke fill markers;fill-opacity:0.50196081"
     id="rect909"
     width="239.71637"
     height="46.203629"
     x="1446.4618"
     y="2194.8425" /></g>

</svg>
